<svg viewBox="0 0 204 236" fill="none" xmlns="http://www.w3.org/2000/svg">
    <path fill-rule="evenodd" clip-rule="evenodd" d="M107.421 35.8018C105.708 36.3319 103.887 36.6174 102 36.6174C100.113 36.6174 98.2918 36.3318 96.5785 35.8013L30.8079 151.403C33.7816 154.182 35.8278 157.941 36.432 162.166H167.569C168.173 157.942 170.219 154.183 173.192 151.404L107.421 35.8018ZM87.7275 30.2019L34.3304 61.7541C35.7876 64.3813 36.6173 67.4045 36.6173 70.6216C36.6173 79.8489 29.7916 87.482 20.9141 88.7468V146.656C21.084 146.68 21.2531 146.707 21.4215 146.736L87.7275 30.2019ZM34.8554 172.627C34.6904 172.975 34.5148 173.316 34.329 173.651L87.9606 205.342C91.3191 201.334 96.3621 198.785 102 198.785C107.637 198.785 112.679 201.332 116.037 205.338L169.67 173.646C169.485 173.313 169.31 172.973 169.146 172.627H34.8554ZM182.578 146.736C182.743 146.708 182.91 146.681 183.077 146.658V88.7454C174.204 87.4763 167.384 79.8455 167.384 70.6216C167.384 67.4064 168.212 64.3847 169.668 61.7586L116.275 30.2088L182.578 146.736ZM193.539 148.234V87.1689C199.725 84.2304 204.001 77.9254 204.001 70.6216C204.001 60.5102 195.804 52.3131 185.692 52.3131C182.748 52.3131 179.967 53.008 177.502 54.2426L120.194 20.378C120.27 19.6988 120.309 19.0083 120.309 18.3088C120.309 8.19709 112.112 0 102 0C91.8891 0 83.6918 8.19709 83.6918 18.3088C83.6918 19.0064 83.7308 19.695 83.8068 20.3723L26.493 54.2398C24.0301 53.0069 21.2504 52.3131 18.3087 52.3131C8.19709 52.3131 0 60.5102 0 70.6216C0 77.9213 4.27183 84.2234 10.4519 87.164V148.239C4.27183 151.18 0 157.481 0 164.781C0 174.892 8.19709 183.09 18.3087 183.09C21.2492 183.09 24.0278 182.397 26.49 181.165L83.8064 215.034C83.7307 215.71 83.6918 216.397 83.6918 217.094C83.6918 227.206 91.8891 235.402 102 235.402C112.112 235.402 120.309 227.206 120.309 217.094C120.309 216.395 120.27 215.706 120.194 215.028L177.505 181.162C179.969 182.396 182.749 183.09 185.692 183.09C195.804 183.09 204.001 174.892 204.001 164.781C204.001 157.477 199.725 151.172 193.539 148.234Z" fill="#FF4081" />
</svg>