<svg viewBox="0 0 212 212" fill="none" xmlns="http://www.w3.org/2000/svg">
<path fill-rule="evenodd" clip-rule="evenodd" d="M0.0621094 0H211.938C211.972 0 212 0.0278073 212 0.0621094V211.938C212 211.972 211.972 212 211.938 212H0.0621094C0.0278073 212 0 211.972 0 211.938V0.0621094C0 0.0278073 0.0278073 0 0.0621094 0ZM153.617 165.211C144.094 165.211 138.297 160.242 134.156 153.203L117.594 162.727C123.391 174.32 135.398 183.016 154.031 183.016C173.078 183.016 187.156 173.078 187.156 155.273C187.156 138.297 177.633 131.258 160.656 123.805L155.688 121.734C146.992 118.008 143.266 115.523 143.266 109.727C143.266 104.758 146.992 101.031 152.789 101.031C158.586 101.031 162.312 103.516 165.625 109.727L180.945 99.7891C174.734 88.1953 165.625 83.6406 152.789 83.6406C134.984 83.6406 123.805 95.2344 123.805 110.141C123.805 126.289 133.328 133.742 147.82 139.953L152.789 142.023C161.898 146.164 167.281 148.648 167.281 155.273C167.281 161.07 161.898 165.211 153.617 165.211ZM64.4579 155.994C64.23 155.619 63.9999 155.24 63.7656 154.859L47.6172 163.555C52.1719 173.492 61.2812 181.773 77.4297 181.773C95.2344 181.773 107.242 172.664 107.242 151.961V84.0547H87.3672V152.789C87.3672 162.727 83.2266 165.211 76.6016 165.211C70.0603 165.211 67.4523 160.92 64.4579 155.994Z" fill="#F7DF1E"/>
</svg>
