<svg viewBox="0 0 288 288" fill="none" xmlns="http://www.w3.org/2000/svg">
    <path fill-rule="evenodd" clip-rule="evenodd" d="M133.925 0.286659C134.206 0.259844 134.431 0.238373 134.579 0.224932C136.913 -4.63724e-05 155.502 0.309298 158.201 0.590521C169.169 1.8279 178.956 3.88082 188.152 6.86178C240.29 23.6789 278.733 69.0682 286.551 123.091C287.704 130.993 287.845 133.328 287.845 144.042C287.845 154.757 287.704 157.091 286.551 164.993C282.614 192.159 270.887 217.638 252.692 238.533C244.143 248.376 233.344 257.825 223.136 264.462L221.983 265.221L199.204 230.715C186.661 211.732 161.126 173.064 142.453 144.745C123.78 116.426 108.172 92.9159 107.75 92.4659C106.26 90.8348 105.303 90.6098 99.5665 90.6098C94.7013 90.6098 94.2514 90.6661 93.0983 91.2285C92.4234 91.5941 91.4673 92.3534 91.0173 92.944L90.1455 94.0408L90.0611 150.454L90.0049 206.839L90.5955 208.105C91.0173 208.92 91.636 209.623 92.4796 210.158L93.7733 210.973H98.6384C102.885 210.973 103.672 210.889 104.572 210.439C105.753 209.82 106.316 209.258 107.047 207.88C107.553 206.923 107.581 205.292 107.666 164.768C107.722 141.624 107.834 122.669 107.947 122.697C108.059 122.697 121.108 141.877 136.969 165.331L165.794 207.992L188.798 239.067C201.453 256.166 211.999 270.311 212.224 270.48C212.562 270.761 212.084 271.098 209.609 272.364C193.467 280.604 177.1 285.385 157.78 287.522C153.421 288 134.579 288 130.22 287.522C119.027 286.284 109.184 284.232 99.8477 281.222C47.709 264.405 9.26591 219.016 1.44792 164.993C0.294908 157.091 0.154297 154.757 0.154297 144.042C0.154297 133.328 0.294908 130.993 1.44792 123.091C4.7101 100.453 13.3436 79.0797 26.8423 60.2378C51.0837 26.3505 89.3581 4.30266 130.22 0.618643C131.568 0.511635 133.03 0.372052 133.925 0.286659ZM196.307 90.5536C195.913 89.2037 194.817 87.9101 193.467 87.2352C192.539 86.729 191.807 86.6727 187.645 86.6727C183.23 86.6727 182.808 86.729 181.655 87.3195C180.305 88.0507 179.321 89.2881 178.871 90.8629C178.702 91.5098 178.59 104.868 178.59 128.631V165.387L187.533 179.054L196.448 192.722L196.532 142.158C196.588 106.921 196.532 91.2848 196.307 90.5536ZM220.155 266.402C219.283 266.88 219.593 266.458 220.577 265.84C221.055 265.53 221.533 265.249 221.617 265.249C221.786 265.277 220.774 266.036 220.155 266.402ZM218.749 267.218C218.13 267.527 218.13 267.499 218.637 267.105C219.227 266.627 219.368 266.571 219.368 266.796C219.368 266.852 219.086 267.049 218.749 267.218ZM217.343 268.061C216.724 268.371 216.724 268.342 217.23 267.949C217.821 267.471 217.962 267.414 217.962 267.639C217.962 267.696 217.68 267.893 217.343 268.061ZM215.937 268.905C215.318 269.214 215.318 269.186 215.824 268.792C216.415 268.314 216.555 268.258 216.555 268.483C216.555 268.539 216.274 268.736 215.937 268.905ZM213.743 270.17C212.675 270.705 212.618 270.48 213.687 269.917L213.836 269.835C214.562 269.437 214.587 269.423 214.587 269.608C214.587 269.664 214.221 269.917 213.743 270.17Z" fill="white" />
</svg>