<svg viewBox="0 0 210 210" fill="none" xmlns="http://www.w3.org/2000/svg">
    <path d="M0 105V210H210V0H0V105ZM127.426 171.727C128.371 171.194 131.897 169.155 135.231 167.221L141.269 163.721L142.538 165.594C144.305 168.289 148.164 171.99 150.5 173.224C157.203 176.759 166.399 176.26 170.931 172.191C171.793 171.467 172.486 170.563 172.96 169.543C173.435 168.523 173.68 167.41 173.679 166.285L173.67 165.874V165.891C173.67 163.459 173.364 162.391 172.095 160.554C170.467 158.226 167.134 156.266 157.666 152.154C146.834 147.49 142.17 144.594 137.9 139.991C135.275 137.007 133.326 133.491 132.186 129.684L132.134 129.491C131.337 126.525 131.136 119.087 131.766 116.095C133.998 105.621 141.899 98.3325 153.3 96.1625C157.001 95.4625 165.602 95.725 169.234 96.6263V96.635C174.571 97.965 178.631 100.336 182.367 104.204C184.301 106.269 187.171 110.031 187.399 110.941C187.469 111.204 178.334 117.329 172.804 120.768C172.603 120.899 171.797 120.032 170.905 118.702C168.192 114.765 165.366 113.067 161.035 112.77C154.665 112.332 150.57 115.666 150.605 121.231L150.596 121.555C150.596 122.876 150.929 124.119 151.515 125.204L151.497 125.16C152.897 128.056 155.505 129.798 163.66 133.324C178.701 139.799 185.132 144.06 189.131 150.124C193.594 156.887 194.6 167.694 191.564 175.726C188.239 184.459 179.97 190.391 168.333 192.351C164.736 192.99 156.205 192.894 152.337 192.194C143.902 190.689 135.905 186.524 130.97 181.055C129.036 178.929 125.265 173.355 125.501 172.961C126.108 172.498 126.752 172.085 127.426 171.727V171.727ZM46.0075 105.569C46.0075 100.896 46.1037 96.9937 46.235 96.9062C46.34 96.7662 62.9738 96.6963 83.1338 96.7313L119.84 96.8363L119.936 105.402L120.006 114.004H92.6625V191.669H73.325V114.004H46.0075V105.569V105.569Z" fill="#1677C7" />
</svg>