<svg width="19" height="18" viewBox="0 0 19 18" fill="none" xmlns="http://www.w3.org/2000/svg">
<path fill-rule="evenodd" clip-rule="evenodd" d="M16.2369 0H1.88801C0.84529 0 0 0.839461 0 1.87499V16.125C0 17.1605 0.84529 18 1.88801 18H9.81774V11.2501H7.92973C7.72119 11.2501 7.55212 11.0822 7.55212 10.8751V8.62509C7.55212 8.41799 7.72119 8.25008 7.92973 8.25008H9.81774V6.37509C9.81774 4.09693 11.6774 2.2501 13.9714 2.2501H15.4818C15.6903 2.2501 15.8594 2.41801 15.8595 2.62508V4.87508C15.8595 5.08219 15.6904 5.25009 15.4818 5.25009H13.9714C13.3458 5.25009 12.8386 5.75378 12.8386 6.37509V8.25008H15.4818C15.5223 8.25012 15.5625 8.25662 15.6009 8.26931C15.7987 8.33477 15.9057 8.54712 15.8398 8.7436L15.0846 10.9936C15.0332 11.1467 14.8891 11.25 14.7266 11.2501H12.8386V18H16.237C17.2797 18 18.125 17.1605 18.125 16.125V1.87499C18.125 0.839461 17.2797 0 16.2369 0Z" fill="white"/>
</svg>
