<svg viewBox="0 0 19 18" fill="none" xmlns="http://www.w3.org/2000/svg">
<path d="M9.27038 0C4.29431 0 0.263916 4.13211 0.263916 9.22838C0.263916 13.3065 2.84427 16.7648 6.42209 17.9841C6.87241 18.0709 7.03753 17.7853 7.03753 17.5403C7.03753 17.3212 7.03003 16.7405 7.02627 15.9712C4.52097 16.5277 3.99259 14.7332 3.99259 14.7332C3.5828 13.6681 2.99062 13.3832 2.99062 13.3832C2.17479 12.8111 3.05367 12.8229 3.05367 12.8229C3.95807 12.887 4.43316 13.7737 4.43316 13.7737C5.23624 15.1847 6.54142 14.777 7.05629 14.5414C7.13735 13.9443 7.36927 13.5381 7.6267 13.3073C5.62652 13.0764 3.52426 12.2829 3.52426 8.74709C3.52426 7.73988 3.87326 6.91659 4.45117 6.27095C4.34985 6.03774 4.04588 5.0994 4.52998 3.82846C4.52998 3.82846 5.28427 3.58116 7.00676 4.77462C7.72728 4.56958 8.49283 4.46785 9.25838 4.46315C10.0239 4.46785 10.7895 4.56958 11.51 4.77462C13.2212 3.58116 13.9755 3.82846 13.9755 3.82846C14.4596 5.0994 14.1556 6.03774 14.0656 6.27095C14.6397 6.91659 14.9887 7.73988 14.9887 8.74709C14.9887 12.2923 12.8835 13.0725 10.8795 13.2995C11.1948 13.5765 11.4875 14.1423 11.4875 15.0071C11.4875 16.242 11.4762 17.2344 11.4762 17.5341C11.4762 17.7759 11.6338 18.0647 12.0954 17.9723C15.6988 16.7609 18.2769 13.3002 18.2769 9.22838C18.2769 4.13211 14.2442 0 9.27038 0Z" fill="white"/>
</svg>
