<svg width="19" height="18" viewBox="0 0 19 18" fill="none" xmlns="http://www.w3.org/2000/svg">
<path d="M16.9774 0H1.56265C0.845144 0 0.26355 0.581177 0.26355 1.29817V16.7018C0.26355 17.4188 0.845144 18 1.56265 18H16.9774C17.6949 18 18.2765 17.4188 18.2765 16.7018V1.29817C18.2765 0.581177 17.6949 0 16.9774 0V0ZM6.65284 13.6055H4.45936V7.01106H6.65284V13.6055ZM5.55617 6.1106H5.54188C4.80581 6.1106 4.32976 5.60426 4.32976 4.97145C4.32976 4.32436 4.82038 3.83203 5.57074 3.83203C6.32109 3.83203 6.78285 4.32436 6.79714 4.97145C6.79714 5.60426 6.32109 6.1106 5.55617 6.1106ZM14.5621 13.6055H12.3689V10.0776C12.3689 9.19102 12.0513 8.58636 11.2576 8.58636C10.6517 8.58636 10.2908 8.99423 10.1322 9.38795C10.0742 9.52885 10.0601 9.72578 10.0601 9.92285V13.6055H7.86674C7.86674 13.6055 7.89547 7.62973 7.86674 7.01106H10.0601V7.94476C10.3516 7.49542 10.8731 6.85629 12.0369 6.85629C13.48 6.85629 14.5621 7.79878 14.5621 9.82425V13.6055Z" fill="white"/>
</svg>
