<svg viewBox="0 0 294 565" fill="none" xmlns="http://www.w3.org/2000/svg">
<path d="M90.4743 327.894L90.482 327.899L90.4897 327.903C94.7973 330.166 98.0509 334.039 99.5481 338.686C101.045 343.334 100.666 348.383 98.4919 352.746L98.4917 352.746L98.4561 352.818C92.1471 365.496 86.173 377.502 80.4667 389.641L80.4666 389.641C60.7249 431.66 74.5242 477.559 112.555 496.478L112.555 496.478C152.114 516.144 199.147 502.034 217.694 464.727C228.191 443.618 229.561 421.756 222.84 402.357C216.121 382.96 201.338 366.092 179.646 354.918C138.097 333.516 62.8799 294.844 35.7648 280.903L34.3434 280.172C31.7906 278.859 29.5875 276.949 27.9199 274.603C26.2523 272.257 25.1692 269.544 24.7618 266.692L24.7615 266.69C24.2288 263.019 24.7101 259.273 26.1524 255.862C27.5947 252.451 29.9425 249.505 32.939 247.346C35.9354 245.188 39.4657 243.898 43.1443 243.619C46.823 243.339 50.5093 244.081 53.8008 245.762C95.1665 266.92 162.374 301.368 202.734 322.525L202.741 322.529C230.003 336.515 250.74 360.671 260.501 389.815C270.262 418.958 268.269 450.767 254.95 478.416C227.039 535.9 160.225 561.403 103.357 536.345L103.357 536.345C43.3998 509.929 15.5961 443.971 40.016 383.145C46.7957 367.167 54.3704 351.542 62.7116 336.329L62.7159 336.321L62.72 336.314C65.224 331.524 69.5159 327.931 74.6552 326.319C79.7914 324.708 85.357 325.207 90.1349 327.707C90.1377 327.709 90.1405 327.71 90.1433 327.712L90.4743 327.894Z" fill="#252323" stroke="#1E1C1C" stroke-width="1.8"/>
<path d="M204.082 235.916L204.075 235.911L204.067 235.907C199.779 233.606 196.56 229.706 195.103 225.045C193.646 220.385 194.07 215.339 196.281 210.995L196.282 210.995L196.318 210.924C202.737 198.301 208.815 186.348 214.627 174.258L214.627 174.258C234.733 132.413 221.334 86.3948 183.469 67.146L183.469 67.1459C144.083 47.1368 96.929 60.8373 78.0576 97.9818C67.3781 118.998 65.8178 140.848 72.369 160.305C78.9193 179.759 93.5556 196.755 115.149 208.117C156.51 229.88 231.388 269.205 258.381 283.381L259.796 284.124C262.338 285.46 264.524 287.388 266.171 289.749C267.818 292.109 268.878 294.831 269.26 297.687L269.26 297.689C269.761 301.365 269.247 305.106 267.775 308.504C266.304 311.903 263.93 314.828 260.915 316.961C257.9 319.093 254.359 320.352 250.678 320.599C246.997 320.847 243.317 320.074 240.04 318.364C198.86 296.847 131.955 261.816 91.7808 240.308L91.7738 240.304C64.6337 226.081 44.1077 201.746 34.6007 172.519C25.0937 143.291 27.3635 111.501 40.9226 83.9693C69.332 26.7299 136.365 1.8092 193.013 27.361L193.013 27.361C252.739 54.297 279.968 120.495 255.02 181.106C248.101 197.024 240.391 212.583 231.917 227.722L231.913 227.73L231.909 227.738C229.363 232.505 225.04 236.061 219.887 237.628C214.737 239.194 209.176 238.647 204.42 236.105C204.418 236.104 204.415 236.102 204.412 236.101L204.082 235.916Z" fill="#252323" stroke="#1E1C1C" stroke-width="1.8"/>
</svg>
