<svg width="198" height="42" viewBox="0 0 198 42" fill="none" xmlns="http://www.w3.org/2000/svg">
<path fill-rule="evenodd" clip-rule="evenodd" d="M101.745 3.38143C101.769 3.69942 101.705 4.01776 101.561 4.30169C98.0274 11.2579 92.28 22.549 88.752 29.3256L88.7483 29.3327L88.7447 29.3397C86.6054 33.5387 82.9112 36.7315 78.4555 38.2342C74.0004 39.7367 69.1378 39.4303 64.9102 37.3802C56.0745 33.0587 52.2092 22.7535 56.0243 14.0353C60.0849 4.75465 70.1579 0.500499 79.4572 4.25106C82.069 5.36756 84.6231 6.61468 87.11 7.98774L87.1256 7.99636L87.1414 8.00468C87.5551 8.22247 87.8665 8.59637 88.0063 9.04519C88.1446 9.48916 88.1035 9.96951 87.8929 10.383L87.863 10.4376L87.8549 10.4531C87.6771 10.7937 87.3736 11.05 87.0104 11.1678C86.6473 11.2856 86.2516 11.2555 85.9098 11.0841L85.889 11.0736C83.7783 10.016 81.7597 9.00455 79.7162 8.0373C72.0067 4.38998 63.3061 6.87965 59.6917 14.1959C56.0514 21.5694 58.6042 30.5075 65.7306 34.0751C69.6231 36.0241 73.7347 36.3097 77.4252 35.0224C81.1098 33.7371 84.2367 30.9334 86.2735 26.9517C89.8444 19.9714 96.294 7.33991 98.6265 2.77178L98.6362 2.75271L98.7541 2.52177C98.8532 2.32778 98.9971 2.16075 99.1735 2.0345C99.3499 1.90826 99.5536 1.82639 99.7677 1.7956L99.5154 0.0133057L99.7718 1.79501C100.085 1.74926 100.405 1.79054 100.696 1.91463C100.987 2.03873 101.24 2.24097 101.425 2.49966C101.61 2.75838 101.721 3.06342 101.745 3.38143Z" fill="white"/>
<path fill-rule="evenodd" clip-rule="evenodd" d="M96.8897 39.4979C97.1863 38.9292 97.5482 38.2353 97.9617 37.4426C97.5513 38.2293 97.1917 38.9188 96.8964 39.4851L96.894 39.4896L96.8897 39.4979ZM92.1812 38.0319C92.16 37.7137 92.2264 37.3959 92.3729 37.1132C95.9663 30.1882 101.811 18.9479 105.397 12.2024L105.401 12.1954L105.405 12.1884C107.58 8.0083 111.302 4.84799 115.771 3.38438C120.238 1.92111 125.097 2.26991 129.307 4.35654C138.106 8.75504 141.882 19.0941 137.992 27.7789C133.851 37.0237 123.742 41.1894 114.475 37.3575C111.873 36.2182 109.33 34.9488 106.855 33.554L106.84 33.5452L106.824 33.5368C106.412 33.3154 106.104 32.9387 105.968 32.4887C105.833 32.0435 105.879 31.5635 106.093 31.1519L106.123 31.0975L106.131 31.0821C106.312 30.743 106.618 30.4894 106.982 30.3748C107.346 30.2602 107.742 30.2937 108.082 30.4682L108.103 30.4789C110.204 31.5549 112.214 32.584 114.249 33.5691C121.927 37.2838 130.648 34.8704 134.326 27.5861C138.03 20.2448 135.554 11.2847 128.459 7.65487C124.584 5.67179 120.475 5.35026 116.773 6.6052C113.077 7.85814 109.926 10.6344 107.855 14.5981C104.223 21.5501 97.6597 34.1331 95.2906 38.6752L95.2906 38.6753L95.1641 38.9178C95.0633 39.1109 94.918 39.2767 94.7405 39.4013C94.5631 39.526 94.3586 39.6061 94.1443 39.635L94.3813 41.4194L94.1402 39.6356C93.8268 39.6786 93.5075 39.6345 93.2172 39.5079C92.9268 39.3812 92.6763 39.1768 92.4934 38.9165C92.3106 38.6561 92.2025 38.3501 92.1812 38.0319Z" fill="white"/>
<path d="M1.35166 30.0836C0.450553 30.0095 0 29.3106 0 27.9867C0 23.3856 2.77841 17.4097 8.33523 10.0591C8.37528 10.0221 8.42033 9.99429 8.4704 9.97578C8.52046 9.97578 8.57052 9.98504 8.62058 10.0036C8.68065 10.0128 8.71069 10.0545 8.71069 10.1285C8.71069 10.1841 8.3953 10.684 7.76453 11.6283C6.81336 13.054 5.74705 14.7296 4.5656 16.6552C3.48428 18.4883 2.55814 20.3768 1.78719 22.321C1.02626 24.2558 0.645793 26.1861 0.645793 28.1117C0.645793 29.2319 0.891094 29.792 1.3817 29.792C1.97242 29.792 2.66827 29.4263 3.46926 28.6949C4.27024 27.9543 5.1313 26.9545 6.05243 25.6954C6.98357 24.4364 7.92473 23.0199 8.87589 21.4461C9.6969 20.1223 10.4428 18.9049 11.1136 17.7939C12.3051 15.785 13.1561 14.4287 13.6668 13.7252C14.0673 13.2067 14.3877 12.9475 14.628 12.9475C15.1486 12.966 15.4089 13.3271 15.4089 14.0307C15.4089 14.3825 15.3589 14.8315 15.2587 15.3777C15.1686 15.9146 15.0535 16.5349 14.9133 17.2385C14.7231 18.1642 14.5278 19.2104 14.3276 20.3768C14.1374 21.4507 14.0422 22.5524 14.0422 23.6819C14.0422 26.5055 14.668 27.9219 15.9195 27.9312C16.7806 27.9312 17.6016 27.5747 18.3826 26.8619C19.1735 26.1398 19.9044 25.177 20.5753 23.9735C21.2461 22.7607 21.8468 21.3998 22.3775 19.8908C22.9181 18.3725 23.3687 16.808 23.7291 15.1971C24.0896 13.5863 24.3549 12.0264 24.5251 10.5174C24.5551 10.2396 24.5702 9.93412 24.5702 9.60084C24.5702 8.99909 24.5251 8.32327 24.435 7.5734C24.435 7.31418 24.5251 7.18457 24.7053 7.18457C24.8956 7.18457 25.0007 7.31418 25.0207 7.5734C25.0207 8.74913 24.9206 10.073 24.7203 11.545C24.5201 13.0077 24.2297 14.5121 23.8493 16.0581C23.4688 17.5949 23.0082 19.0854 22.4676 20.5296C21.9369 21.9645 21.3362 23.2606 20.6654 24.4178C19.9945 25.5658 19.2586 26.487 18.4577 27.1813C17.6667 27.8664 16.8206 28.2089 15.9195 28.2089C15.1987 28.2089 14.5929 27.8293 14.1023 27.0702C13.6217 26.3018 13.3814 25.1724 13.3814 23.6819C13.5016 21.1823 13.8069 18.8586 14.2975 16.7108C14.6179 15.1555 14.7781 14.151 14.7781 13.6974C14.7781 13.3919 14.7181 13.2391 14.5979 13.2391C14.4077 13.2391 13.9772 13.7622 13.3063 14.8083C12.6355 15.8452 11.7694 17.2477 10.7081 19.016C10.2175 19.8214 9.6969 20.6777 9.14623 21.585C7.80458 23.7883 6.45793 25.7232 5.10627 27.3896C3.65449 29.1856 2.40295 30.0836 1.35166 30.0836Z" fill="white"/>
<path d="M25.6665 21.46C25.4362 21.46 25.3211 21.2934 25.3211 20.9601C25.3211 20.5157 25.4813 20.2611 25.8017 20.1963C25.9519 20.1963 26.082 20.2565 26.1921 20.3768C26.3023 20.4879 26.3573 20.6083 26.3573 20.7379C26.3573 20.9045 26.2823 21.0665 26.1321 21.2239C25.9819 21.3813 25.8267 21.46 25.6665 21.46ZM26.2072 25.0705C24.9556 25.0705 24.3198 24.6169 24.2998 23.7096C24.2998 23.1357 24.5001 22.608 24.9006 22.1266C24.9606 22.0247 25.0708 21.9738 25.231 21.9738C25.3411 21.9738 25.4362 21.9969 25.5163 22.0432C25.5964 22.0803 25.6365 22.1358 25.6365 22.2099L25.6214 22.2793C25.291 22.7422 25.1258 23.2329 25.1258 23.7513C25.1258 24.0105 25.2109 24.2419 25.3812 24.4456C25.5614 24.6493 25.8317 24.765 26.1921 24.7928C26.8029 24.7928 27.5288 24.6771 28.3698 24.4456C29.2209 24.2049 30.0519 23.9318 30.8629 23.6263C31.6739 23.3208 32.3547 23.0477 32.9054 22.807L33.7614 22.4459C33.8816 22.4459 33.9417 22.4922 33.9417 22.5848C33.9417 22.6126 33.9316 22.6404 33.9116 22.6681C33.9016 22.6959 33.8866 22.7098 33.8666 22.7098C33.8365 22.7283 33.5462 22.8579 32.9955 23.0986C32.4548 23.3301 31.784 23.5985 30.983 23.904C28.9105 24.6817 27.3185 25.0705 26.2072 25.0705Z" fill="white"/>
<path d="M34.3472 22.3071C36.3296 21.622 38.267 20.3583 40.1593 18.516C41.1004 17.5995 41.8564 16.7108 42.4271 15.8498C43.0078 14.9888 43.2981 14.3038 43.2981 13.7946C43.2781 13.0355 42.8776 12.6559 42.0967 12.6559C40.745 12.7948 39.3183 13.8779 37.8164 15.9054C36.3246 17.9328 35.1682 20.0667 34.3472 22.3071ZM34.8578 27.9034C33.5562 27.8293 32.9054 27.1535 32.9054 25.8759C32.9054 24.3392 33.381 22.5339 34.3321 20.4602C35.2833 18.3864 36.4547 16.5349 37.8465 14.9055C39.2482 13.3039 40.6649 12.4569 42.0967 12.3643C43.0779 12.3643 43.5785 12.841 43.5985 13.7946C43.5685 14.4334 43.2581 15.1833 42.6674 16.0442C42.0867 16.9052 41.3257 17.7939 40.3846 18.7105C38.4322 20.6175 36.3797 21.9275 34.227 22.6404C33.7965 23.8809 33.5812 24.9502 33.5812 25.8482C33.5812 26.4962 33.6863 26.9545 33.8966 27.2229C34.1169 27.4914 34.4373 27.6257 34.8578 27.6257C36.3396 27.4868 38.0467 26.8249 39.9791 25.6399C41.9114 24.4549 43.3883 23.3856 44.4095 22.4321L44.4696 22.3904C44.5997 22.3904 44.6648 22.4459 44.6648 22.557L44.6498 22.6404C43.5785 23.6032 42.0816 24.6817 40.1593 25.8759C38.2069 27.0887 36.4397 27.7645 34.8578 27.9034Z" fill="white"/>
<path d="M45.0703 22.3071C47.0527 21.622 48.9901 20.3583 50.8825 18.516C51.8236 17.5995 52.5795 16.7108 53.1502 15.8498C53.7309 14.9888 54.0213 14.3038 54.0213 13.7946C54.0013 13.0355 53.6008 12.6559 52.8198 12.6559C51.4682 12.7948 50.0414 13.8779 48.5396 15.9054C47.0477 17.9328 45.8913 20.0667 45.0703 22.3071ZM45.5809 27.9034C44.2793 27.8293 43.6285 27.1535 43.6285 25.8759C43.6285 24.3392 44.1041 22.5339 45.0553 20.4602C46.0065 18.3864 47.1779 16.5349 48.5696 14.9055C49.9713 13.3039 51.3881 12.4569 52.8198 12.3643C53.801 12.3643 54.3016 12.841 54.3217 13.7946C54.2916 14.4334 53.9813 15.1833 53.3905 16.0442C52.8098 16.9052 52.0489 17.7939 51.1077 18.7105C49.1553 20.6175 47.1028 21.9275 44.9502 22.6404C44.5196 23.8809 44.3044 24.9502 44.3044 25.8482C44.3044 26.4962 44.4095 26.9545 44.6198 27.2229C44.84 27.4914 45.1604 27.6257 45.5809 27.6257C47.0628 27.4868 48.7699 26.8249 50.7022 25.6399C52.6346 24.4549 54.1114 23.3856 55.1327 22.4321L55.1927 22.3904C55.3229 22.3904 55.388 22.4459 55.388 22.557L55.373 22.6404C54.3016 23.6032 52.8048 24.6817 50.8825 25.8759C48.9301 27.0887 47.1629 27.7645 45.5809 27.9034Z" fill="white"/>
<path d="M55.9737 21.46C55.7434 21.46 55.6283 21.2934 55.6283 20.9601C55.6283 20.5157 55.7885 20.2611 56.1089 20.1963C56.259 20.1963 56.3892 20.2565 56.4993 20.3768C56.6095 20.4879 56.6645 20.6083 56.6645 20.7379C56.6645 20.9045 56.5895 21.0665 56.4393 21.2239C56.2891 21.3813 56.1339 21.46 55.9737 21.46ZM56.5144 25.0705C55.2628 25.0705 54.627 24.6169 54.607 23.7096C54.607 23.1357 54.8073 22.608 55.2078 22.1266C55.2678 22.0247 55.378 21.9738 55.5382 21.9738C55.6483 21.9738 55.7434 21.9969 55.8235 22.0432C55.9036 22.0803 55.9437 22.1358 55.9437 22.2099L55.9286 22.2793C55.5982 22.7422 55.433 23.2329 55.433 23.7513C55.433 24.0105 55.5181 24.2419 55.6884 24.4456C55.8686 24.6493 56.1389 24.765 56.4993 24.7928C57.1101 24.7928 57.836 24.6771 58.677 24.4456C59.5281 24.2049 60.3591 23.9318 61.1701 23.6263C61.9811 23.3208 62.6619 23.0477 63.2126 22.807L64.0686 22.4459C64.1888 22.4459 64.2489 22.4922 64.2489 22.5848C64.2489 22.6126 64.2388 22.6404 64.2188 22.6681C64.2088 22.6959 64.1938 22.7098 64.1738 22.7098C64.1437 22.7283 63.8534 22.8579 63.3027 23.0986C62.762 23.3301 62.0912 23.5985 61.2902 23.904C59.2177 24.6817 57.6257 25.0705 56.5144 25.0705Z" fill="white"/>
<path d="M74.8369 22.4598C74.9069 22.4598 74.952 22.4691 74.972 22.4876C75.0021 22.5061 75.0221 22.5246 75.0321 22.5432C75.0421 22.5617 75.0471 22.5894 75.0471 22.6265L74.972 22.7098C72.1786 24.1447 69.8808 24.8622 68.0786 24.8622C67.4378 24.8622 66.9372 24.7511 66.5767 24.5289C66.2163 24.2975 66.006 23.9735 65.9459 23.5569C65.8859 23.6124 65.7157 23.7605 65.4353 24.0012C64.8446 24.5012 64.364 24.7511 63.9935 24.7511C63.4529 24.7511 63.1675 24.4595 63.1375 23.8763C63.1375 23.58 63.2576 23.2467 63.4979 22.8764C63.7382 22.4969 64.0436 22.1682 64.4141 21.8905C64.7845 21.6128 65.17 21.4739 65.5705 21.4739C65.9009 21.4739 66.1312 21.5618 66.2613 21.7377C66.4015 21.9136 66.4716 22.1173 66.4716 22.3487C66.4716 22.4135 66.4516 22.4506 66.4115 22.4598C66.3715 22.4691 66.3314 22.4737 66.2914 22.4737C66.2713 22.4737 66.2463 22.4691 66.2163 22.4598C66.1962 22.4506 66.1762 22.4367 66.1562 22.4182C66.1362 22.3997 66.1262 22.3719 66.1262 22.3349C66.1262 22.0849 65.961 21.9553 65.6306 21.946C65.3702 21.946 65.0899 22.071 64.7895 22.321C64.4992 22.5709 64.2539 22.8579 64.0536 23.1819C63.8534 23.506 63.7532 23.7791 63.7532 24.0012C63.7532 24.279 63.8434 24.4317 64.0236 24.4595C64.2439 24.4595 64.5242 24.3345 64.8646 24.0846C65.205 23.8346 65.5755 23.5106 65.976 23.1125C66.026 23.0292 66.1111 22.9875 66.2313 22.9875C66.4516 22.9875 66.5617 23.0755 66.5617 23.2514C66.5617 24.1216 67.0723 24.5567 68.0936 24.5567C69.8157 24.5567 72.0534 23.867 74.8068 22.4876L74.8369 22.4598Z" fill="white"/>
<path d="M74.7467 23.9735C74.8068 23.8994 74.952 23.7096 75.1823 23.4041C76.2236 22.071 77.1096 21.4045 77.8405 21.4045C78.3612 21.4322 78.6215 21.71 78.6215 22.2376C78.6215 22.6635 78.5064 23.1218 78.2761 23.6124C79.027 22.844 79.6928 22.4598 80.2735 22.4598C80.7441 22.4876 81.0945 22.6218 81.3248 22.8625C81.5551 23.1032 81.7453 23.3717 81.8955 23.668C82.0157 23.9087 82.1558 24.1216 82.316 24.3068C82.4762 24.4827 82.6965 24.5799 82.9768 24.5984C83.888 24.5984 85.2346 24.2466 87.0168 23.543C87.968 23.1727 88.829 22.807 89.6 22.4459C89.6801 22.4459 89.7301 22.4645 89.7502 22.5015C89.7802 22.5293 89.7952 22.5756 89.7952 22.6404C89.7752 22.6681 89.7602 22.6866 89.7502 22.6959C89.7401 22.6959 89.7201 22.7098 89.6901 22.7376C89.66 22.7561 89.5799 22.7885 89.4498 22.8348C89.3296 22.8811 89.1744 22.9505 88.9842 23.0431C88.4736 23.293 87.8628 23.5569 87.152 23.8346C85.3798 24.5382 83.9881 24.89 82.9768 24.89C82.1959 24.89 81.6602 24.7187 81.3699 24.3762C81.0995 24.0244 80.9143 23.6911 80.8142 23.3764C80.7441 23.1819 80.669 23.0292 80.5889 22.9181C80.5188 22.807 80.4137 22.7515 80.2735 22.7515C79.6828 22.7515 78.8718 23.3254 77.8405 24.4734C77.7705 24.5752 77.6803 24.6261 77.5702 24.6261C77.4801 24.6261 77.39 24.5891 77.2999 24.5151C77.2098 24.441 77.1647 24.3623 77.1647 24.279C77.1647 24.2234 77.2048 24.1355 77.2849 24.0151C77.8355 22.9875 78.1109 22.2932 78.1109 21.9321C78.1109 21.7655 78.0208 21.6822 77.8405 21.6822C77.4901 21.6822 77.1046 21.8673 76.6841 22.2376C76.2636 22.608 75.8631 23.0431 75.4826 23.543C75.1022 24.0337 74.7868 24.4688 74.5365 24.8483C74.2862 25.2279 74.156 25.4408 74.146 25.4871C74.0759 25.5982 73.9858 25.6538 73.8757 25.6538C73.7255 25.6538 73.6454 25.5473 73.6354 25.3344C73.7255 24.8715 73.8957 24.3068 74.146 23.6402C74.3863 22.9736 74.6116 22.4459 74.8218 22.0571C74.972 21.8812 75.1372 21.7933 75.3174 21.7933C75.5778 21.8118 75.7079 21.909 75.7079 22.0849C75.7079 22.1312 75.6879 22.1867 75.6479 22.2515C75.2273 22.9736 74.927 23.5476 74.7467 23.9735Z" fill="white"/>
<path d="M99.407 31.5139C98.7562 31.5139 98.2606 31.3565 97.9202 31.0418C97.5798 30.727 97.4096 30.3335 97.4096 29.8614C97.4096 29.2041 97.6198 28.5375 98.0403 27.8617C98.4709 27.1859 99.0315 26.524 99.7224 25.8759C100.413 25.2279 101.159 24.6215 101.96 24.0568C102.521 20.3907 103.257 16.5858 104.168 12.642C104.238 12.4106 104.383 12.2948 104.603 12.2948C104.714 12.2948 104.809 12.3319 104.889 12.4059C104.969 12.48 105.009 12.5726 105.009 12.6837C105.009 12.7485 104.994 12.8318 104.964 12.9336C104.633 13.8039 104.238 15.2666 103.777 17.3218C103.327 19.377 102.931 21.4785 102.591 23.6263L103.087 23.3069C103.217 23.3069 103.282 23.3578 103.282 23.4597C103.282 23.4689 103.282 23.4828 103.282 23.5013C103.282 23.5106 103.267 23.5291 103.237 23.5569L102.531 24.029C102.25 25.788 102.11 27.2183 102.11 28.32C102.11 28.4218 102.04 28.4727 101.9 28.4727C101.7 28.4727 101.6 28.3848 101.6 28.2089C101.6 27.1813 101.7 25.9315 101.9 24.4595C101.52 24.7372 101.039 25.1307 100.458 25.6399C98.6361 27.2044 97.7249 28.6116 97.7249 29.8614C97.7249 30.2687 97.8651 30.602 98.1455 30.8612C98.4258 31.1112 98.8463 31.2362 99.407 31.2362C101.75 31.2362 104.093 30.3567 106.436 28.5977C107.957 27.459 109.334 26.1305 110.566 24.6123C111.807 23.094 112.793 21.4785 113.524 19.7658C114.265 18.0439 114.636 16.3358 114.636 14.6417C114.636 13.7344 114.45 12.9383 114.08 12.2532C113.72 11.5681 113.184 11.0312 112.473 10.6423C111.772 10.2535 110.891 10.0591 109.83 10.0591C108.428 10.0591 107.111 10.235 105.88 10.5868C104.658 10.9293 103.537 11.3876 102.516 11.9616C101.505 12.5263 100.598 13.1558 99.7975 13.8501C98.6461 14.8315 97.75 15.7943 97.1092 16.7386C96.4684 17.6736 96.148 18.5855 96.148 19.4742C96.148 19.6409 96.0579 19.7288 95.8777 19.7381C95.6774 19.7381 95.5773 19.6501 95.5773 19.4742C95.5773 18.8539 95.9277 18.0069 96.6286 16.933C97.3295 15.8498 98.3207 14.7481 99.6022 13.628C100.854 12.5633 102.346 11.6514 104.078 10.8923C105.82 10.1424 107.737 9.76748 109.83 9.76748C110.911 9.76748 111.862 9.948 112.683 10.3091C113.514 10.6609 114.165 11.1978 114.636 11.9199C115.106 12.642 115.342 13.5493 115.342 14.6417C115.342 16.3358 114.976 18.0532 114.245 19.7936C113.514 21.5248 112.528 23.1681 111.287 24.7234C110.055 26.2694 108.643 27.6349 107.051 28.8199C104.618 30.6159 102.07 31.5139 99.407 31.5139Z" fill="white"/>
<path d="M116.032 22.8903C116.293 22.8811 116.543 22.8301 116.783 22.7376C117.024 22.645 117.144 22.5015 117.144 22.3071C117.144 22.2145 117.054 22.1682 116.873 22.1682C116.503 22.1682 116.223 22.4089 116.032 22.8903ZM116.934 24.9317C115.852 24.9317 115.286 24.5104 115.236 23.668C115.236 23.2051 115.377 22.7977 115.657 22.4459C115.937 22.0942 116.343 21.9044 116.873 21.8766C117.024 21.8766 117.159 21.9136 117.279 21.9877C117.399 22.0618 117.459 22.1682 117.459 22.3071C117.459 22.6218 117.289 22.844 116.949 22.9736C116.608 23.1032 116.273 23.1681 115.942 23.1681C115.912 23.2977 115.897 23.4504 115.897 23.6263C115.897 23.9318 115.987 24.1771 116.168 24.3623C116.358 24.5475 116.613 24.64 116.934 24.64C117.694 24.64 118.5 24.5382 119.351 24.3345C120.203 24.1309 121.069 23.8624 121.95 23.5291C122.831 23.1958 123.712 22.8394 124.593 22.4598C124.643 22.4598 124.688 22.4691 124.728 22.4876C124.778 22.5061 124.803 22.5478 124.803 22.6126C124.803 22.6311 124.793 22.6542 124.773 22.682C124.763 22.7098 124.748 22.7237 124.728 22.7237C124.708 22.7422 124.443 22.8625 123.932 23.0847C123.421 23.3069 122.771 23.5615 121.98 23.8485C121.189 24.1355 120.343 24.3901 119.442 24.6123C118.551 24.8252 117.714 24.9317 116.934 24.9317Z" fill="white"/>
<path d="M125.869 25.1538C125.579 25.1538 125.314 25.015 125.074 24.7372C124.843 24.4502 124.658 24.1216 124.518 23.7513C124.378 23.3717 124.308 23.0246 124.308 22.7098C124.308 22.5524 124.333 22.4043 124.383 22.2654C124.433 22.1266 124.578 22.0571 124.818 22.0571C125.109 22.0571 125.259 22.1358 125.269 22.2932C125.189 22.608 125.149 22.8996 125.149 23.1681C125.149 23.381 125.174 23.6217 125.224 23.8902C125.284 24.1494 125.369 24.3762 125.479 24.5706C125.589 24.765 125.719 24.8622 125.869 24.8622C126.14 24.8622 126.575 24.6308 127.176 24.1679C127.787 23.6957 128.363 23.1495 128.903 22.5293C128.913 22.4552 128.948 22.3673 129.008 22.2654C129.068 22.1543 129.133 22.0571 129.204 21.9738C129.284 21.8905 129.364 21.8488 129.444 21.8488C129.484 21.8673 129.519 21.8812 129.549 21.8905C129.589 21.8997 129.619 21.9136 129.639 21.9321C129.669 21.9414 129.684 21.9692 129.684 22.0155C129.684 22.0618 129.669 22.0988 129.639 22.1266C129.459 22.3025 129.369 22.4784 129.369 22.6542C129.369 23.006 129.579 23.3069 130 23.5569C130.43 23.8068 130.956 23.9411 131.576 23.9596C133.519 23.9596 135.386 23.5847 137.178 22.8348L138.17 22.4459C138.29 22.4459 138.35 22.4922 138.35 22.5848C138.35 22.6589 138.26 22.7283 138.079 22.7931L137.299 23.0986C135.406 23.867 133.499 24.2512 131.576 24.2512C130.946 24.2512 130.365 24.1216 129.834 23.8624C129.314 23.6032 129.008 23.3023 128.918 22.9598C128.428 23.543 127.877 24.0568 127.266 24.5012C126.655 24.9363 126.19 25.1538 125.869 25.1538Z" fill="white"/>
<path d="M138.38 22.8903C138.64 22.8811 138.89 22.8301 139.131 22.7376C139.371 22.645 139.491 22.5015 139.491 22.3071C139.491 22.2145 139.401 22.1682 139.221 22.1682C138.85 22.1682 138.57 22.4089 138.38 22.8903ZM139.281 24.9317C138.2 24.9317 137.634 24.5104 137.584 23.668C137.584 23.2051 137.724 22.7977 138.004 22.4459C138.285 22.0942 138.69 21.9044 139.221 21.8766C139.371 21.8766 139.506 21.9136 139.626 21.9877C139.747 22.0618 139.807 22.1682 139.807 22.3071C139.807 22.6218 139.636 22.844 139.296 22.9736C138.956 23.1032 138.62 23.1681 138.29 23.1681C138.26 23.2977 138.245 23.4504 138.245 23.6263C138.245 23.9318 138.335 24.1771 138.515 24.3623C138.705 24.5475 138.961 24.64 139.281 24.64C140.042 24.64 140.848 24.5382 141.699 24.3345C142.55 24.1309 143.416 23.8624 144.297 23.5291C145.178 23.1958 146.059 22.8394 146.94 22.4598C146.99 22.4598 147.035 22.4691 147.076 22.4876C147.126 22.5061 147.151 22.5478 147.151 22.6126C147.151 22.6311 147.141 22.6542 147.121 22.682C147.111 22.7098 147.096 22.7237 147.076 22.7237C147.055 22.7422 146.79 22.8625 146.28 23.0847C145.769 23.3069 145.118 23.5615 144.327 23.8485C143.536 24.1355 142.69 24.3901 141.789 24.6123C140.898 24.8252 140.062 24.9317 139.281 24.9317Z" fill="white"/>
<path d="M147.556 22.3071C149.539 21.622 151.476 20.3583 153.368 18.516C154.309 17.5995 155.065 16.7108 155.636 15.8498C156.217 14.9888 156.507 14.3038 156.507 13.7946C156.487 13.0355 156.087 12.6559 155.306 12.6559C153.954 12.7948 152.527 13.8779 151.025 15.9054C149.534 17.9328 148.377 20.0667 147.556 22.3071ZM148.067 27.9034C146.765 27.8293 146.114 27.1535 146.114 25.8759C146.114 24.3392 146.59 22.5339 147.541 20.4602C148.492 18.3864 149.664 16.5349 151.055 14.9055C152.457 13.3039 153.874 12.4569 155.306 12.3643C156.287 12.3643 156.787 12.841 156.807 13.7946C156.777 14.4334 156.467 15.1833 155.876 16.0442C155.296 16.9052 154.535 17.7939 153.594 18.7105C151.641 20.6175 149.589 21.9275 147.436 22.6404C147.005 23.8809 146.79 24.9502 146.79 25.8482C146.79 26.4962 146.895 26.9545 147.106 27.2229C147.326 27.4914 147.646 27.6257 148.067 27.6257C149.549 27.4868 151.256 26.8249 153.188 25.6399C155.12 24.4549 156.597 23.3856 157.618 22.4321L157.679 22.3904C157.809 22.3904 157.874 22.4459 157.874 22.557L157.859 22.6404C156.787 23.6032 155.291 24.6817 153.368 25.8759C151.416 27.0887 149.649 27.7645 148.067 27.9034Z" fill="white"/>
<path d="M159.24 23.0292C159.28 22.9088 159.301 22.7977 159.301 22.6959C159.301 22.52 159.245 22.4321 159.135 22.4321C159.095 22.4321 159.07 22.5061 159.06 22.6542C159.06 22.8209 159.12 22.9459 159.24 23.0292ZM158.039 24.3345C157.779 24.3345 157.553 24.2651 157.363 24.1262C157.163 23.9874 157.063 23.7744 157.063 23.4874C157.063 23.1819 157.173 22.8718 157.393 22.557C157.613 22.2423 157.854 22.0432 158.114 21.9599C158.344 21.9599 158.459 22.0571 158.459 22.2515C158.459 22.3071 158.439 22.358 158.399 22.4043C157.869 22.8024 157.603 23.1958 157.603 23.5847C157.603 23.6957 157.638 23.8022 157.709 23.904C157.779 23.9966 157.889 24.0429 158.039 24.0429C158.289 24.0429 158.49 23.9827 158.64 23.8624C158.79 23.7328 158.935 23.5661 159.075 23.3625C158.785 23.2329 158.64 22.9968 158.64 22.6542C158.64 22.3487 158.81 22.1821 159.15 22.1543C159.461 22.1543 159.616 22.3302 159.616 22.682C159.616 22.8394 159.576 23.0014 159.496 23.1681C159.786 23.2977 160.127 23.3625 160.517 23.3625C162.049 23.3254 163.506 23.2005 164.887 22.9875C166.269 22.7746 167.21 22.5941 167.711 22.4459C167.841 22.4459 167.906 22.4969 167.906 22.5987V22.6126C167.906 22.6959 167.506 22.8163 166.705 22.9736C165.914 23.131 164.957 23.2791 163.836 23.418C162.715 23.5569 161.608 23.6356 160.517 23.6541C160.107 23.6541 159.721 23.5939 159.361 23.4736C159.05 24.0475 158.61 24.3345 158.039 24.3345Z" fill="white"/>
<path d="M164.467 33.222C164.317 33.222 164.242 33.1479 164.242 32.9998L167.756 21.4461C167.806 21.2702 167.956 21.1823 168.206 21.1823C168.437 21.2193 168.552 21.3119 168.552 21.46C168.552 21.497 168.171 22.6635 167.41 24.9594C168.532 23.0153 169.578 22.0432 170.549 22.0432C170.87 22.0432 171.115 22.1404 171.285 22.3349C171.455 22.52 171.541 22.7422 171.541 23.0014C171.541 23.7791 171.17 24.5428 170.429 25.2927L172.562 24.9594C174.204 24.691 175.591 24.353 176.722 23.9457C177.853 23.5291 178.88 23.0292 179.801 22.4459C179.931 22.4459 179.996 22.4969 179.996 22.5987C179.996 22.6635 179.966 22.7052 179.906 22.7237C178.094 23.9087 175.671 24.7465 172.637 25.2372L170.069 25.6538C169.678 26.0055 169.243 26.2324 168.762 26.3342C168.582 26.3342 168.492 26.2509 168.492 26.0842C168.492 25.8065 168.782 25.6121 169.363 25.501C169.783 25.2048 170.139 24.8159 170.429 24.3345C170.73 23.8439 170.88 23.3532 170.88 22.8625C170.88 22.5015 170.77 22.321 170.549 22.321C170.069 22.3673 169.518 22.7422 168.897 23.4458C168.287 24.1494 167.641 25.1122 166.96 26.3342L166.915 26.4314L164.692 33.0692C164.662 33.171 164.587 33.222 164.467 33.222Z" fill="white"/>
<path d="M180.011 22.8903C180.271 22.8811 180.522 22.8301 180.762 22.7376C181.002 22.645 181.122 22.5015 181.122 22.3071C181.122 22.2145 181.032 22.1682 180.852 22.1682C180.482 22.1682 180.201 22.4089 180.011 22.8903ZM180.912 24.9317C179.831 24.9317 179.265 24.5104 179.215 23.668C179.215 23.2051 179.355 22.7977 179.635 22.4459C179.916 22.0942 180.321 21.9044 180.852 21.8766C181.002 21.8766 181.137 21.9136 181.257 21.9877C181.378 22.0618 181.438 22.1682 181.438 22.3071C181.438 22.6218 181.267 22.844 180.927 22.9736C180.587 23.1032 180.251 23.1681 179.921 23.1681C179.891 23.2977 179.876 23.4504 179.876 23.6263C179.876 23.9318 179.966 24.1771 180.146 24.3623C180.336 24.5475 180.592 24.64 180.912 24.64C181.673 24.64 182.479 24.5382 183.33 24.3345C184.181 24.1309 185.047 23.8624 185.928 23.5291C186.809 23.1958 187.69 22.8394 188.571 22.4598C188.622 22.4598 188.667 22.4691 188.707 22.4876C188.757 22.5061 188.782 22.5478 188.782 22.6126C188.782 22.6311 188.772 22.6542 188.752 22.682C188.742 22.7098 188.727 22.7237 188.707 22.7237C188.687 22.7422 188.421 22.8625 187.911 23.0847C187.4 23.3069 186.749 23.5615 185.958 23.8485C185.167 24.1355 184.321 24.3901 183.42 24.6123C182.529 24.8252 181.693 24.9317 180.912 24.9317Z" fill="white"/>
<path d="M189.713 21.46C189.553 21.46 189.377 21.5479 189.187 21.7238C188.997 21.8905 188.902 22.0571 188.902 22.2238V22.2515C189.072 22.1497 189.252 22.0062 189.443 21.8211C189.623 21.6452 189.713 21.5248 189.713 21.46ZM189.548 25.8204C188.797 25.8204 188.411 25.5843 188.391 25.1122C188.391 24.8067 188.506 24.4688 188.737 24.0985C188.897 23.8207 188.977 23.5985 188.977 23.4319C188.977 23.3115 188.907 23.1773 188.767 23.0292C188.536 22.7607 188.421 22.4922 188.421 22.2238C188.421 21.9275 188.566 21.6822 188.857 21.4878C189.157 21.2934 189.438 21.1869 189.698 21.1684C189.798 21.1684 189.878 21.2008 189.938 21.2656C190.008 21.3211 190.043 21.3859 190.043 21.46C190.043 21.5526 189.993 21.659 189.893 21.7794C189.723 22.0016 189.427 22.2562 189.007 22.5432C189.087 22.682 189.187 22.8116 189.307 22.932C189.518 23.1542 189.623 23.3532 189.623 23.5291C189.623 23.7235 189.543 23.955 189.382 24.2234C189.192 24.6123 189.097 24.927 189.097 25.1677C189.097 25.4084 189.247 25.5334 189.548 25.5427C191.36 25.5427 193.973 24.5197 197.387 22.4737L197.447 22.4598C197.567 22.4598 197.628 22.52 197.628 22.6404L197.552 22.7237C194.148 24.7882 191.48 25.8204 189.548 25.8204Z" fill="white"/>
</svg>
