<svg width="21" height="18" viewBox="0 0 21 18" fill="none" xmlns="http://www.w3.org/2000/svg">
<path d="M20.7327 2.13092C19.9715 2.49231 19.1604 2.73185 18.3148 2.84815C19.1847 2.286 19.8487 1.40262 20.1608 0.337846C19.3497 0.861231 18.4542 1.23092 17.4998 1.43723C16.7297 0.549693 15.632 0 14.4346 0C12.1114 0 10.241 2.04092 10.241 4.54292C10.241 4.90292 10.2692 5.24908 10.3383 5.57862C6.84957 5.39446 3.76259 3.58477 1.68882 0.828C1.32678 1.50785 1.11441 2.286 1.11441 3.12369C1.11441 4.69662 1.86281 6.09092 2.97837 6.89815C2.30417 6.88431 1.64277 6.67246 1.08243 6.33877C1.08243 6.35262 1.08243 6.37062 1.08243 6.38862C1.08243 8.59569 2.53701 10.4289 4.44446 10.8512C4.10289 10.9523 3.73061 11.0008 3.34425 11.0008C3.0756 11.0008 2.80438 10.9842 2.5498 10.9232C3.09351 12.7218 4.63636 14.0442 6.47089 14.0871C5.04318 15.2958 3.2304 16.0242 1.26793 16.0242C0.923797 16.0242 0.593734 16.0075 0.263672 15.9618C2.12251 17.2592 4.32549 18 6.70117 18C14.4231 18 18.6448 11.0769 18.6448 5.076C18.6448 4.87523 18.6384 4.68139 18.6295 4.48892C19.4623 3.84923 20.1621 3.05031 20.7327 2.13092Z" fill="white"/>
</svg>
