<svg viewBox="0 0 246 246" fill="none" xmlns="http://www.w3.org/2000/svg">
<path d="M123 0C55.0826 0 0 55.0826 0 123C0 190.917 55.0826 246 123 246C190.917 246 246 190.917 246 123C246 55.0826 190.917 0 123 0ZM132.893 224.074C132.359 224.074 131.824 224.074 131.022 224.341V166.317C144.926 166.05 157.493 165.783 168.991 164.98C158.83 196.265 139.846 217.122 132.893 224.074V224.074ZM113.107 224.074C105.887 216.854 87.1696 195.998 77.0087 164.98C88.2391 165.783 101.074 166.317 114.978 166.317V224.341C114.443 224.341 113.909 224.074 113.107 224.074V224.074ZM21.3913 123C21.3913 116.315 22.1935 109.63 23.263 103.213C29.1457 102.143 40.3761 100.539 56.1522 98.9348C54.8152 106.689 54.013 114.711 54.013 123.267C54.013 131.824 54.8152 139.846 55.8848 147.333C40.3761 145.728 28.8783 144.124 22.9957 143.054C22.1935 136.37 21.3913 129.685 21.3913 123V123ZM70.3239 123C70.3239 113.909 71.3935 105.352 72.9978 97.3304C85.2978 96.5283 99.2022 95.7261 114.978 95.7261V150.274C99.4696 150.007 85.2978 149.472 72.7304 148.402C71.3935 140.648 70.3239 132.091 70.3239 123V123ZM132.626 21.9261C139.846 29.1457 158.296 50.537 168.724 81.0196C157.493 80.2174 144.926 79.6826 131.022 79.6826V21.6587C131.557 21.6587 132.091 21.9261 132.626 21.9261ZM114.978 21.6587V79.6826C101.074 79.95 88.5065 80.2174 77.2761 81.0196C87.437 50.537 106.154 29.1457 113.107 21.9261C113.909 21.9261 114.443 21.6587 114.978 21.6587V21.6587ZM131.022 150.274V95.7261C146.53 95.9935 160.702 96.5283 173.002 97.3304C174.607 105.352 175.676 113.909 175.676 123C175.676 132.091 174.874 140.648 173.27 148.67C160.97 149.472 146.798 150.007 131.022 150.274ZM189.58 98.9348C205.357 100.539 216.587 102.143 222.47 103.213C223.807 109.63 224.609 116.315 224.609 123C224.609 129.685 223.807 136.37 222.737 142.787C216.854 143.857 205.624 145.461 189.848 147.065C191.185 139.311 191.72 131.289 191.72 122.733C191.72 114.711 190.917 106.422 189.58 98.9348ZM217.657 86.1C210.17 85.0304 199.474 83.6935 185.837 82.3565C179.42 59.3609 168.189 40.9109 158.83 27.8087C185.837 37.9696 207.228 59.3609 217.657 86.1ZM87.1696 27.8087C77.5435 40.6435 66.5804 59.0935 60.163 82.0891C46.7935 83.1587 36.0978 84.763 28.3435 85.8326C38.7717 59.3609 60.4304 37.9696 87.1696 27.8087V27.8087ZM28.3435 159.9C35.8304 160.97 46.5261 162.307 59.8957 163.643C66.313 186.639 77.0087 205.089 86.6348 217.924C59.8957 207.496 38.7717 186.372 28.3435 159.9V159.9ZM159.365 217.924C168.991 205.089 179.687 186.907 186.104 163.911C199.474 162.841 210.17 161.237 217.657 160.167C207.228 186.372 186.104 207.496 159.365 217.924V217.924Z" fill="white"/>
</svg>
